<?xml version="1.0" standalone="yes"?>
<svg xmlns="http://www.w3.org/2000/svg" width="2200" height="769">
<path style="fill:#2b1d63; stroke:none;" d="M0 0L0 769L2200 769L2200 0L0 0z"/>
<path style="fill:#fefefe; stroke:none;" d="M1467 68.4645C1459.95 69.7357 1452.66 72.7968 1446.91 77.0548C1434.39 86.3354 1425.81 101.113 1426.02 117C1426.39 145.751 1453.83 168.243 1482 163.675C1488.95 162.548 1495.06 159.894 1501 156.185C1506.12 152.986 1510.26 149.011 1513.64 144C1518.88 136.234 1523.11 125.515 1522.87 116C1522.17 87.9673 1495.35 63.3525 1467 68.4645M377 493C365.502 488.071 354.129 480.058 342 477C332.384 490.425 321.461 502.247 309.285 513.382C288.982 531.951 253.53 528.241 233.285 511.286C221.957 501.799 214.83 488.477 209.345 475C195.969 442.136 196.591 403.395 201.572 369C203.99 352.301 207.811 335.11 215.693 320C221.647 308.585 230.119 296.906 241.17 289.88C255.082 281.034 278.574 279.055 294 284.8C301.37 287.545 308.113 292.919 313.996 298C324.717 307.259 333.768 318.508 342 330C354.271 326.458 365.046 318.41 377 314C374.429 303.058 362.698 292.038 355.169 284.039C320.998 247.735 270.622 237.464 223 246.804C199.968 251.321 177.455 259.483 158 272.904C111.733 304.82 92.6654 361.785 95.0394 416C96.695 453.811 110.135 491.664 137.093 518.975C168.725 551.021 219.851 566.116 264 563.089C300.657 560.577 331.864 548.13 357.285 520.826C364.306 513.286 374.591 503.252 377 493M546 243.424C532.653 245.178 519.087 246.391 506 249.759C472.794 258.306 442.206 278.969 422.439 307C395.135 345.719 390.877 393.852 400.335 439C404.737 460.014 413.212 481.432 426.029 498.91C459.578 544.662 518.524 570.672 575 563.714C607.686 559.687 640.984 546.586 665.985 524.866C730.677 468.664 737.702 356.938 680.845 293.004C658.986 268.424 629.607 254.498 598 247.576C581.462 243.954 562.92 241.202 546 243.424M1383 493C1370.75 489.129 1359.63 479.28 1347 477C1336.44 494.106 1319.2 515.168 1300 522.787C1292.26 525.86 1283.09 525.858 1275 524.95C1251.31 522.291 1232.57 510.54 1221.12 489C1213.96 475.53 1210.73 461.785 1207.8 447C1200.03 407.841 1202.28 361.729 1219 325C1223.44 315.247 1228.43 306.688 1236.01 299.004C1251.22 283.607 1278.25 276.624 1299 284.775C1312.81 290.199 1323.62 300.96 1333.13 312C1338.1 317.771 1343.28 323.319 1347 330C1358.91 326.569 1372.67 319.808 1383 313C1378.74 305.357 1373.17 298.727 1367.61 292.015C1351.85 272.985 1331.5 258.209 1308 250.232C1251.41 231.027 1180.93 250.345 1140.39 293.3C1098.32 337.877 1091.21 409.677 1109.75 466C1130.18 528.062 1191.99 560.32 1254 563.039C1288.94 564.572 1322.99 555.944 1350.04 532.905C1362.3 522.462 1377.16 508.427 1383 493M1799 560L1833 560C1836.27 560 1842.45 561.173 1844.86 558.397C1846.89 556.067 1847.39 551.824 1848.57 549C1851.79 541.278 1855.21 533.039 1857.51 525C1858.81 520.466 1860.38 511.717 1865.21 509.603C1871.86 506.702 1883.79 509 1891 509L1951 509L1970 509C1972.71 509.001 1976.3 508.483 1978.7 510.028C1981.93 512.11 1983.33 518.606 1984.82 522C1988.11 529.467 1990.75 537.338 1993.54 545C1995.39 550.075 1998.07 554.624 1999 560L2098 560C2095.5 549.445 2090.59 539.21 2086.94 529C2081.13 512.738 2075.79 496.277 2069.94 480C2047.56 417.733 2024.8 355.043 2004.62 292C2001.23 281.404 1996.84 269.65 1989.67 261.001C1977.86 246.752 1954.98 239.485 1937 244.289C1922.42 248.187 1908.21 257.135 1899.96 270C1889.57 286.213 1886.57 307.137 1879.81 325C1869.34 352.644 1861.22 381.144 1851.3 409C1833.46 459.14 1816.07 509.54 1799 560M754 249L754 697L852 697L852 558C869.632 558.012 887.288 559.736 905 558.961C942.401 557.323 981.637 548.593 1013 527.539C1048.43 503.754 1064.28 463.857 1068.17 423C1072.74 374.953 1061.13 322.613 1022.58 290.294C992.659 265.218 954.502 252.837 916 249.17C897.983 247.454 879.102 249 861 249L754 249M1425 249L1425 560L1524 560L1524 249L1425 249M1564 518L1564 560L1652 560C1676.37 560 1700.8 560.547 1724 551.899C1743.6 544.595 1762.76 532.989 1775.39 516C1798.67 484.696 1801.38 433.51 1778.56 401C1759.63 374.036 1722.37 363.037 1692 354.975C1676.27 350.799 1655.5 342.875 1654.6 324C1653.93 310.187 1664.14 299.194 1677 295.641C1697.69 289.928 1719.73 292 1741 292L1758 292C1760.24 291.995 1763.51 292.468 1765.4 290.972C1768.07 288.853 1767 282.981 1767 280L1767 249L1670 249C1658.76 249.004 1647.89 251.608 1637 254.113C1604.07 261.685 1572.16 278.729 1561.09 313C1556.36 327.652 1556.81 345.975 1559.25 361C1561.4 374.318 1565.17 387.442 1574.21 398C1604.01 432.797 1658.32 423.76 1690.67 455.001C1708.55 472.261 1707.63 503.845 1682 512.821C1664.93 518.8 1647.82 518 1630 518L1564 518z"/>
<path style="fill:#2b1d63; stroke:none;" d="M547 284.518C520.724 290.09 511.152 315.643 506.336 339C503.852 351.046 502.748 362.772 501.91 375C501.269 384.372 501 393.579 501 403C501 425.531 502.99 447.762 506.562 470C508.986 485.096 513.223 501.823 525.439 512.275C532.761 518.539 542.686 520.601 552 521.714C558.269 522.464 564.846 521.822 571 520.489C595.734 515.133 604.518 492.461 608.739 470C611.218 456.812 611.181 444.263 612.089 431C614.525 395.436 614.349 358.676 605.485 324C598.671 297.34 574.895 278.602 547 284.518M852 288L852 513C876.312 514.919 907.495 518.539 928 502.481C947.574 487.153 954.911 460.622 957.17 437C961.432 392.43 962.313 333.872 924 302.465C918.056 297.592 910.498 292.625 903 290.606C893.685 288.097 883.54 289 874 289C866.611 289 859.352 288.061 852 288M1920 341C1909.88 367.269 1901.92 394.478 1892.56 421C1888.91 431.338 1885.16 441.556 1881.81 452C1880.28 456.758 1878.26 460.945 1878 466L1966 465C1963.98 451.299 1956.93 438.092 1952.59 425C1943.28 396.875 1933.71 368.616 1923 341L1920 341z"/>
</svg>
